<svg width="24" height="24" viewBox="0 0 24 24" fill="none" xmlns="http://www.w3.org/2000/svg">
<g clip-path="url(#clip0_4946_2469)">
<path d="M23.8412 12.2244C23.8412 11.2412 23.7628 10.5236 23.5932 9.77954H12.5629V14.2175H19.0374C18.9069 15.3204 18.202 16.9814 16.6356 18.0975L16.6136 18.246L20.1012 20.9962L20.3428 21.0208C22.5619 18.9346 23.8412 15.8652 23.8412 12.2244Z" fill="#4285F4"/>
<path d="M12.5629 23.9176C15.7349 23.9176 18.3978 22.8545 20.3428 21.0209L16.6356 18.0976C15.6435 18.8018 14.312 19.2934 12.5629 19.2934C9.45611 19.2934 6.81929 17.2074 5.87934 14.324L5.74156 14.3359L2.11511 17.1927L2.06769 17.3269C3.99961 21.2334 7.96794 23.9176 12.5629 23.9176Z" fill="#34A853"/>
<path d="M5.87946 14.324C5.63145 13.58 5.48791 12.7826 5.48791 11.9589C5.48791 11.135 5.63145 10.3378 5.86642 9.59366L5.85985 9.43519L2.18796 6.53247L2.06782 6.59064C1.27158 8.21174 0.814697 10.0322 0.814697 11.9589C0.814697 13.8855 1.27158 15.7059 2.06782 17.327L5.87946 14.324Z" fill="#FBBC05"/>
<path d="M12.5629 4.62403C14.7689 4.62403 16.257 5.59401 17.1055 6.40461L20.4211 3.10928C18.3848 1.1826 15.7348 0 12.5629 0C7.96793 0 3.99961 2.68406 2.06769 6.59056L5.86629 9.59359C6.81929 6.7102 9.45611 4.62403 12.5629 4.62403Z" fill="#EB4335"/>
</g>
<defs>
<clipPath id="clip0_4946_2469">
<rect width="23.04" height="24" fill="white" transform="translate(0.813354)"/>
</clipPath>
</defs>
</svg>
