<svg width="60" height="60" viewBox="0 0 60 60" fill="none" xmlns="http://www.w3.org/2000/svg">
<path fill-rule="evenodd" clip-rule="evenodd" d="M16.8245 25.6989C17.7809 11.919 23.1147 2 29.9965 2C33.3485 2 36.3401 4.36166 38.6422 8.38082C37.1388 8.69718 35.6514 9.08182 34.1848 9.53348C32.8658 7.50332 31.4045 6.33332 29.9965 6.33332C26.9827 6.33332 23.733 11.62 22.136 19.6388C22.2569 19.5642 22.3759 19.4891 22.4945 19.4142C22.7686 19.2411 23.0403 19.0696 23.326 18.9108C29.7474 15.2968 36.4202 12.9091 42.1276 12.1898C48.4957 11.386 53.0754 12.7748 55.0394 16.0833C56.6876 18.8566 56.176 22.5248 53.6715 26.5613C52.6928 25.4866 51.5874 24.4206 50.4241 23.3698C51.5607 21.2291 51.8654 19.4005 51.187 18.25C50.433 16.9803 48.3911 16.3043 45.5063 16.3043C44.5645 16.3079 43.624 16.3701 42.6904 16.4906C37.5546 17.1406 31.4645 19.3333 25.548 22.6613C24.1132 23.4995 22.7103 24.3885 21.3419 25.3263C21.2218 26.6718 21.1351 28.0433 21.1173 29.4819C19.5092 28.2448 18.0589 26.9773 16.8245 25.6989ZM4.95584 16.0833C6.59734 13.3165 10.0894 11.9103 14.9138 11.9948C14.4445 13.3663 14.0442 14.8223 13.6972 16.3541C11.2549 16.4733 9.4822 17.1168 8.81493 18.25C7.83181 19.901 8.8305 22.904 11.4907 26.2969C14.6269 30.3031 19.6226 34.3396 25.548 37.6719C26.9898 38.4868 28.4682 39.2387 29.9787 39.9253C31.2644 39.3316 32.5589 38.6968 33.8445 37.9969C33.5153 40.1116 33.0816 41.9467 32.5945 43.5219C30.3613 44.5792 28.1281 45.4849 25.9484 46.2129L24.4804 46.6549C22.9857 47.1099 21.6823 47.4501 20.4989 47.6949C20.4941 47.6962 20.4894 47.6974 20.4847 47.6987C20.4577 47.7059 20.434 47.7122 20.4055 47.7122L19.9184 47.8141C19.2245 47.9484 18.5461 48.0567 17.8677 48.1434C16.6932 48.2951 15.5655 48.3709 14.5135 48.3709C9.89147 48.3709 6.55508 46.9496 4.95584 44.2499C3.30544 41.4722 3.81702 37.8106 6.31264 33.7806C7.35036 34.8876 8.43759 35.9496 9.57117 36.9634C8.43235 39.1041 8.12763 40.9327 8.81493 42.0832C9.78693 43.7342 12.9565 44.3929 17.2938 43.8447C19.5625 43.5566 22.0292 42.9391 24.576 42.0832C24.3831 41.9783 24.1888 41.8784 23.9952 41.7789C23.7692 41.6628 23.5442 41.5471 23.3238 41.4246C16.9023 37.8084 11.4462 33.3733 7.95414 28.9229C7.57157 28.4398 7.26684 27.9999 6.98881 27.5861C3.91266 23.1423 3.16754 19.095 4.95584 16.0833ZM35.0278 22.9971C36.9295 22.2626 38.789 21.6776 40.544 21.279C45.2705 24.386 49.2764 27.8894 52.0389 31.4103C55.9403 36.3784 57.0012 40.9414 55.0372 44.2499C53.438 46.9496 50.1016 48.3709 45.4796 48.3709C45.4184 48.3709 45.3511 48.3649 45.2839 48.359C45.2166 48.353 45.1493 48.3471 45.0881 48.3471C45.5671 46.9209 45.9702 45.4717 46.2959 44.0051C48.7559 43.8859 50.502 43.2251 51.187 42.0832C52.159 40.4323 51.1626 37.4293 48.5112 34.0341C47.1233 32.2748 45.3328 30.5046 43.2976 28.7864C43.3014 28.9869 43.3102 29.1841 43.3189 29.3809C43.3305 29.6415 43.3421 29.9012 43.3421 30.1666C43.3421 45.3072 38.2418 56.9205 31.2821 58.2054C30.864 58.2899 30.4414 58.3332 29.9965 58.3332C26.6446 58.3332 23.6529 55.9715 21.3508 51.9524C22.8033 51.6556 24.2958 51.2569 25.8082 50.7932C27.1272 52.8407 28.5886 53.9999 29.9965 53.9999C30.2479 53.9999 30.5259 53.9587 30.7973 53.8721C34.7676 52.6956 38.8936 42.9456 38.8936 30.1666C38.8936 28.4658 38.789 26.8581 38.6511 25.2829C37.4856 24.5051 36.2867 23.7251 35.0278 22.9971ZM33.7528 27.9999L30 25.8333L26.2472 27.9999V32.3333L30 34.4999L33.7528 32.3333V27.9999Z" fill="#17CE92"/>
</svg>
