<svg width="269" height="77" viewBox="0 0 269 77" fill="none" xmlns="http://www.w3.org/2000/svg">
<path fill-rule="evenodd" clip-rule="evenodd" d="M16.8245 34.1989C17.7809 20.419 23.1147 10.5 29.9965 10.5C33.3485 10.5 36.3401 12.8617 38.6422 16.8808C37.1388 17.1972 35.6514 17.5818 34.1848 18.0335C32.8658 16.0033 31.4045 14.8333 29.9965 14.8333C26.9827 14.8333 23.733 20.12 22.136 28.1388C22.2569 28.0642 22.3759 27.9891 22.4945 27.9142C22.7686 27.7411 23.0403 27.5696 23.326 27.4108C29.7474 23.7968 36.4202 21.4091 42.1276 20.6898C48.4957 19.886 53.0754 21.2748 55.0394 24.5833C56.6876 27.3566 56.176 31.0248 53.6715 35.0613C52.6928 33.9866 51.5874 32.9206 50.4241 31.8698C51.5607 29.7291 51.8654 27.9005 51.187 26.75C50.433 25.4803 48.3911 24.8043 45.5063 24.8043C44.5645 24.8079 43.624 24.8701 42.6904 24.9906C37.5546 25.6406 31.4645 27.8333 25.548 31.1613C24.1132 31.9995 22.7103 32.8885 21.3419 33.8263C21.2218 35.1718 21.1351 36.5433 21.1173 37.9819C19.5092 36.7448 18.0589 35.4773 16.8245 34.1989ZM4.95584 24.5833C6.59734 21.8165 10.0894 20.4103 14.9138 20.4948C14.4445 21.8663 14.0442 23.3223 13.6972 24.8541C11.2549 24.9733 9.4822 25.6168 8.81493 26.75C7.83181 28.401 8.8305 31.404 11.4907 34.7969C14.6269 38.8031 19.6226 42.8396 25.548 46.1719C26.9898 46.9868 28.4682 47.7387 29.9787 48.4253C31.2644 47.8316 32.5589 47.1968 33.8445 46.4969C33.5153 48.6116 33.0816 50.4467 32.5945 52.0219C30.3613 53.0792 28.1281 53.9849 25.9484 54.7129L24.4804 55.1549C22.9857 55.6099 21.6823 55.9501 20.4989 56.1949C20.4941 56.1962 20.4894 56.1974 20.4847 56.1987C20.4577 56.2059 20.434 56.2122 20.4055 56.2122L19.9184 56.3141C19.2245 56.4484 18.5461 56.5567 17.8677 56.6434C16.6932 56.7951 15.5655 56.8709 14.5135 56.8709C9.89147 56.8709 6.55508 55.4496 4.95584 52.7499C3.30544 49.9722 3.81702 46.3106 6.31264 42.2806C7.35036 43.3876 8.43759 44.4496 9.57117 45.4634C8.43235 47.6041 8.12763 49.4327 8.81493 50.5832C9.78693 52.2342 12.9565 52.8929 17.2938 52.3447C19.5625 52.0566 22.0292 51.4391 24.576 50.5832C24.3831 50.4783 24.1888 50.3784 23.9952 50.2789C23.7692 50.1628 23.5442 50.0471 23.3238 49.9246C16.9023 46.3084 11.4462 41.8733 7.95414 37.4229C7.57157 36.9398 7.26684 36.4999 6.98881 36.0861C3.91266 31.6423 3.16754 27.595 4.95584 24.5833ZM35.0278 31.4971C36.9295 30.7626 38.789 30.1776 40.544 29.779C45.2705 32.886 49.2764 36.3894 52.0389 39.9103C55.9403 44.8784 57.0012 49.4414 55.0372 52.7499C53.438 55.4496 50.1016 56.8709 45.4796 56.8709C45.4184 56.8709 45.3511 56.8649 45.2839 56.859C45.2166 56.853 45.1493 56.8471 45.0881 56.8471C45.5671 55.4209 45.9702 53.9717 46.2959 52.5051C48.7559 52.3859 50.502 51.7251 51.187 50.5832C52.159 48.9323 51.1626 45.9293 48.5112 42.5341C47.1233 40.7748 45.3328 39.0046 43.2976 37.2864C43.3014 37.4869 43.3102 37.6841 43.3189 37.8809C43.3305 38.1415 43.3421 38.4012 43.3421 38.6666C43.3421 53.8072 38.2418 65.4205 31.2821 66.7054C30.864 66.7899 30.4414 66.8332 29.9965 66.8332C26.6446 66.8332 23.6529 64.4715 21.3508 60.4524C22.8033 60.1556 24.2958 59.7569 25.8082 59.2932C27.1272 61.3407 28.5886 62.4999 29.9965 62.4999C30.2479 62.4999 30.5259 62.4587 30.7973 62.3721C34.7676 61.1956 38.8936 51.4456 38.8936 38.6666C38.8936 36.9658 38.789 35.3581 38.6511 33.7829C37.4856 33.0051 36.2867 32.2251 35.0278 31.4971ZM33.7528 36.4999L30 34.3333L26.2472 36.4999V40.8333L30 42.9999L33.7528 40.8333V36.4999Z" fill="#17CE92"/>
<path d="M90.432 55.624C88.16 55.624 86.024 55.176 84.024 54.28C82.024 53.368 80.264 52.112 78.744 50.512C77.24 48.912 76.056 47.064 75.192 44.968C74.344 42.856 73.92 40.6 73.92 38.2C73.92 35.784 74.344 33.528 75.192 31.432C76.056 29.32 77.24 27.472 78.744 25.888C80.264 24.288 82.024 23.04 84.024 22.144C86.024 21.232 88.16 20.776 90.432 20.776C93.152 20.776 95.656 21.408 97.944 22.672C100.232 23.92 102.128 25.592 103.632 27.688L98.4 30.496C97.456 29.328 96.28 28.392 94.872 27.688C93.48 26.984 92 26.632 90.432 26.632C88.96 26.632 87.576 26.936 86.28 27.544C84.984 28.136 83.848 28.968 82.872 30.04C81.896 31.096 81.136 32.328 80.592 33.736C80.048 35.128 79.776 36.616 79.776 38.2C79.776 39.8 80.048 41.296 80.592 42.688C81.152 44.08 81.92 45.312 82.896 46.384C83.872 47.44 85 48.272 86.28 48.88C87.576 49.472 88.96 49.768 90.432 49.768C92.032 49.768 93.52 49.416 94.896 48.712C96.288 47.992 97.456 47.048 98.4 45.88L103.632 48.712C102.128 50.792 100.232 52.464 97.944 53.728C95.656 54.992 93.152 55.624 90.432 55.624ZM130.145 39.832V55H124.289V41.368C124.289 40.424 124.057 39.568 123.593 38.8C123.129 38.016 122.505 37.4 121.721 36.952C120.953 36.488 120.097 36.256 119.153 36.256C118.209 36.256 117.345 36.488 116.561 36.952C115.793 37.4 115.177 38.016 114.713 38.8C114.265 39.568 114.041 40.424 114.041 41.368V55H108.185L108.161 19H114.017L114.041 33.136C114.857 32.272 115.833 31.592 116.969 31.096C118.105 30.584 119.329 30.328 120.641 30.328C122.385 30.328 123.977 30.76 125.417 31.624C126.857 32.472 128.001 33.616 128.849 35.056C129.713 36.48 130.145 38.072 130.145 39.832ZM152.554 31H158.41V55H152.554L152.29 52.024C151.634 53.096 150.762 53.968 149.674 54.64C148.602 55.296 147.33 55.624 145.858 55.624C144.082 55.624 142.418 55.288 140.866 54.616C139.314 53.944 137.946 53.016 136.762 51.832C135.594 50.648 134.674 49.28 134.002 47.728C133.346 46.176 133.018 44.512 133.018 42.736C133.018 41.024 133.33 39.416 133.954 37.912C134.594 36.408 135.482 35.088 136.618 33.952C137.754 32.816 139.066 31.928 140.554 31.288C142.042 30.648 143.642 30.328 145.354 30.328C146.938 30.328 148.354 30.68 149.602 31.384C150.866 32.088 151.938 32.984 152.818 34.072L152.554 31ZM145.714 49.984C146.962 49.984 148.066 49.672 149.026 49.048C149.986 48.424 150.738 47.584 151.282 46.528C151.826 45.456 152.098 44.28 152.098 43C152.098 41.704 151.826 40.528 151.282 39.472C150.738 38.4 149.978 37.552 149.002 36.928C148.042 36.304 146.946 35.992 145.714 35.992C144.482 35.992 143.354 36.312 142.33 36.952C141.322 37.576 140.514 38.416 139.906 39.472C139.314 40.528 139.018 41.704 139.018 43C139.018 44.296 139.322 45.472 139.93 46.528C140.538 47.584 141.346 48.424 142.354 49.048C143.378 49.672 144.498 49.984 145.714 49.984ZM176.057 36.856H171.401V55H165.545V36.856H161.993V31H165.545V23.464H171.401V31H176.057V36.856ZM193.26 36.856H188.604V55H182.748V36.856H179.196V31H182.748V23.464H188.604V31H193.26V36.856ZM213.125 31H219.341L206.213 67H199.997L204.341 55L195.701 31H202.109L207.269 46.984L213.125 31ZM235.362 21.4H242.106L254.322 55H248.106L245.946 49.048H231.546L229.386 55H223.17L235.362 21.4ZM233.682 43.192H243.786L238.722 29.344L233.682 43.192ZM259.069 55V21.4H264.925V55H259.069Z" fill="white"/>
</svg>
