<svg width="60" height="60" viewBox="0 0 60 60" fill="none" xmlns="http://www.w3.org/2000/svg">
<rect width="60" height="60" rx="30" fill="#17CE92"/>
<path fill-rule="evenodd" clip-rule="evenodd" d="M19.865 26.23C20.6007 15.63 24.7036 8 29.9973 8C32.5758 8 34.877 9.81666 36.6479 12.9083C35.4914 13.1517 34.3472 13.4476 33.2191 13.795C32.2045 12.2333 31.0804 11.3333 29.9973 11.3333C27.679 11.3333 25.1792 15.4 23.9508 21.5683C24.0437 21.5109 24.1353 21.4531 24.2265 21.3956C24.4374 21.2624 24.6464 21.1305 24.8661 21.0083C29.8057 18.2283 34.9386 16.3916 39.3289 15.8383C44.2274 15.22 47.7503 16.2883 49.2611 18.8333C50.5289 20.9666 50.1354 23.7883 48.2089 26.8933C47.456 26.0666 46.6057 25.2466 45.7108 24.4383C46.5852 22.7916 46.8196 21.385 46.2977 20.5C45.7177 19.5233 44.147 19.0033 41.9279 19.0033C41.2035 19.0061 40.48 19.0539 39.7618 19.1466C35.8112 19.6466 31.1266 21.3333 26.5754 23.8933C25.4717 24.5381 24.3925 25.2219 23.34 25.9433C23.2476 26.9783 23.1808 28.0333 23.1672 29.14C21.9301 28.1883 20.8146 27.2133 19.865 26.23ZM10.7353 18.8333C11.998 16.705 14.6842 15.6233 18.3953 15.6883C18.0342 16.7433 17.7263 17.8633 17.4594 19.0416C15.5807 19.1333 14.2171 19.6283 13.7038 20.5C12.9475 21.77 13.7158 24.08 15.7621 26.69C18.1745 29.7716 22.0174 32.8766 26.5754 35.4399C27.6845 36.0668 28.8217 36.6451 29.9836 37.1733C30.9726 36.7166 31.9684 36.2283 32.9573 35.6899C32.7041 37.3166 32.3704 38.7283 31.9957 39.9399C30.2779 40.7533 28.5601 41.4499 26.8834 42.0099L25.7541 42.3499C24.6044 42.6999 23.6017 42.9616 22.6915 43.1499C22.6878 43.1509 22.6841 43.1519 22.6806 43.1528C22.6597 43.1584 22.6416 43.1633 22.6196 43.1633L22.2449 43.2416C21.7111 43.3449 21.1893 43.4283 20.6674 43.4949C19.764 43.6116 18.8966 43.6699 18.0873 43.6699C14.5319 43.6699 11.9654 42.5766 10.7353 40.4999C9.46572 38.3633 9.85925 35.5466 11.779 32.4466C12.5772 33.2981 13.4135 34.115 14.2855 34.8949C13.4095 36.5416 13.1751 37.9483 13.7038 38.8333C14.4515 40.1033 16.8896 40.6099 20.226 40.1883C21.9712 39.9666 23.8686 39.4916 25.8277 38.8333C25.6793 38.7525 25.5298 38.6757 25.3809 38.5992C25.2071 38.5098 25.034 38.4209 24.8644 38.3266C19.9249 35.5449 15.7279 32.1333 13.0416 28.71C12.7474 28.3383 12.513 28 12.2991 27.6816C9.93282 24.2633 9.35964 21.15 10.7353 18.8333ZM33.8675 24.1516C35.3304 23.5866 36.7608 23.1366 38.1107 22.83C41.7465 25.22 44.828 27.915 46.953 30.6233C49.954 34.4449 50.7702 37.9549 49.2594 40.4999C48.0292 42.5766 45.4628 43.6699 41.9074 43.6699C41.8603 43.6699 41.8086 43.6653 41.7568 43.6608C41.7051 43.6562 41.6533 43.6516 41.6062 43.6516C41.9747 42.5546 42.2848 41.4398 42.5353 40.3116C44.4276 40.2199 45.7707 39.7116 46.2977 38.8333C47.0454 37.5633 46.2789 35.2533 44.2394 32.6416C43.1718 31.2883 41.7944 29.9266 40.2289 28.605C40.2319 28.7591 40.2386 28.9109 40.2453 29.0622C40.2542 29.2627 40.2631 29.4625 40.2631 29.6666C40.2631 41.3133 36.3399 50.2466 30.9863 51.2349C30.6646 51.2999 30.3395 51.3332 29.9973 51.3332C27.4189 51.3332 25.1177 49.5166 23.3468 46.4249C24.4641 46.1966 25.6121 45.8899 26.7756 45.5333C27.7902 47.1082 28.9143 47.9999 29.9973 47.9999C30.1907 47.9999 30.4045 47.9682 30.6133 47.9016C33.6674 46.9966 36.8412 39.4966 36.8412 29.6666C36.8412 28.3583 36.7608 27.1216 36.6547 25.91C35.7582 25.3116 34.8359 24.7116 33.8675 24.1516ZM32.8868 28L30 26.3333L27.1132 28V31.3333L30 32.9999L32.8868 31.3333V28Z" fill="white"/>
</svg>
